<?xml version="1.0" encoding="UTF-8" standalone="no"?>
<!DOCTYPE svg PUBLIC "-//W3C//DTD SVG 1.1//EN"
 "http://www.w3.org/Graphics/SVG/1.1/DTD/svg11.dtd">
<!-- Generated by graphviz version 12.1.2 (20240928.0832)
 -->
<!-- Pages: 1 -->
<svg width="513pt" height="247pt"
 viewBox="0.00 0.00 512.87 246.80" xmlns="http://www.w3.org/2000/svg" xmlns:xlink="http://www.w3.org/1999/xlink">
<g id="graph0" class="graph" transform="scale(1 1) rotate(0) translate(4 242.8)">
<polygon fill="white" stroke="none" points="-4,4 -4,-242.8 508.87,-242.8 508.87,4 -4,4"/>
<text text-anchor="middle" x="252.44" y="-222.2" font-family="Times,serif" font-size="14.00">Modelly model_Diagram</text>
<g id="clust1" class="cluster">
<title>cluster_s3</title>
<polygon fill="none" stroke="red" stroke-dasharray="5,2" points="195.19,-50 195.19,-206 496.87,-206 496.87,-50 195.19,-50"/>
<text text-anchor="middle" x="346.03" y="-189.4" font-family="Times,serif" font-size="14.00" fill="red">AWS</text>
</g>
<g id="clust2" class="cluster">
<title>cluster_s1</title>
<polygon fill="none" stroke="red" stroke-dasharray="5,2" points="8,-8 8,-118 93.28,-118 93.28,-8 8,-8"/>
<text text-anchor="middle" x="50.64" y="-101.4" font-family="Times,serif" font-size="14.00" fill="red">Browser</text>
</g>
<!-- n6 -->
<g id="node1" class="node">
<title>n6</title>
<path fill="#fffb9e" stroke="black" d="M488.87,-90.73C488.87,-92.53 476.77,-94 461.87,-94 446.97,-94 434.87,-92.53 434.87,-90.73 434.87,-90.73 434.87,-61.27 434.87,-61.27 434.87,-59.47 446.97,-58 461.87,-58 476.77,-58 488.87,-59.47 488.87,-61.27 488.87,-61.27 488.87,-90.73 488.87,-90.73"/>
<path fill="none" stroke="black" d="M488.87,-90.73C488.87,-88.92 476.77,-87.45 461.87,-87.45 446.97,-87.45 434.87,-88.92 434.87,-90.73"/>
<text text-anchor="middle" x="461.87" y="-71.8" font-family="Times,serif" font-size="14.00">Logs</text>
</g>
<!-- n4 -->
<g id="node2" class="node">
<title>n4</title>
<ellipse fill="#9ed3ff" stroke="black" cx="260.08" cy="-116" rx="56.88" ry="56.88"/>
<text text-anchor="middle" x="260.08" y="-111.8" font-family="Times,serif" font-size="14.00">Web Server</text>
</g>
<!-- n4&#45;&gt;n6 -->
<g id="edge3" class="edge">
<title>n4&#45;&gt;n6</title>
<path fill="none" stroke="black" d="M316.2,-104.96C350.41,-98.12 393.45,-89.5 423.66,-83.45"/>
<polygon fill="black" stroke="black" points="423.96,-86.96 433.08,-81.56 422.58,-80.1 423.96,-86.96"/>
<text text-anchor="middle" x="403.26" y="-94.28" font-family="Times,serif" font-size="14.00">TCP</text>
</g>
<!-- n7 -->
<g id="node3" class="node">
<title>n7</title>
<path fill="#fffb9e" stroke="black" d="M488.87,-156.73C488.87,-158.53 476.77,-160 461.87,-160 446.97,-160 434.87,-158.53 434.87,-156.73 434.87,-156.73 434.87,-127.27 434.87,-127.27 434.87,-125.47 446.97,-124 461.87,-124 476.77,-124 488.87,-125.47 488.87,-127.27 488.87,-127.27 488.87,-156.73 488.87,-156.73"/>
<path fill="none" stroke="black" d="M488.87,-156.73C488.87,-154.92 476.77,-153.45 461.87,-153.45 446.97,-153.45 434.87,-154.92 434.87,-156.73"/>
<text text-anchor="middle" x="461.87" y="-137.8" font-family="Times,serif" font-size="14.00">sqlite</text>
</g>
<!-- n4&#45;&gt;n7 -->
<g id="edge4" class="edge">
<title>n4&#45;&gt;n7</title>
<path fill="none" stroke="black" d="M316.78,-109.74C346.9,-108.01 384.46,-108.56 416.87,-117.2 419.79,-117.98 422.72,-118.99 425.6,-120.17"/>
<polygon fill="black" stroke="black" points="423.85,-123.22 434.39,-124.35 426.86,-116.9 423.85,-123.22"/>
<text text-anchor="middle" x="403.26" y="-121.4" font-family="Times,serif" font-size="14.00">https</text>
</g>
<!-- n7&#45;&gt;n4 -->
<g id="edge5" class="edge">
<title>n7&#45;&gt;n4</title>
<path fill="none" stroke="black" d="M434.47,-139.21C421.04,-137.74 404.46,-135.87 389.64,-134 369.55,-131.47 347.72,-128.49 327.85,-125.7"/>
<polygon fill="black" stroke="black" points="328.61,-122.27 318.22,-124.34 327.63,-129.2 328.61,-122.27"/>
<text text-anchor="middle" x="403.26" y="-141.24" font-family="Times,serif" font-size="14.00">https</text>
</g>
<!-- n2 -->
<g id="node4" class="node">
<title>n2</title>
<ellipse fill="#9ed3ff" stroke="black" cx="50.64" cy="-51" rx="34.64" ry="34.64"/>
<text text-anchor="middle" x="50.64" y="-46.8" font-family="Times,serif" font-size="14.00">Client</text>
</g>
<!-- n2&#45;&gt;n4 -->
<g id="edge2" class="edge">
<title>n2&#45;&gt;n4</title>
<path fill="none" stroke="black" d="M84.05,-61.16C113.61,-70.42 158.14,-84.37 194.89,-95.89"/>
<polygon fill="black" stroke="black" points="193.49,-99.12 204.08,-98.77 195.58,-92.44 193.49,-99.12"/>
<text text-anchor="middle" x="116.9" y="-78.08" font-family="Times,serif" font-size="14.00">https</text>
</g>
<!-- n5 -->
<g id="node5" class="node">
<title>n5</title>
<polygon fill="#ffd59e" stroke="black" points="260.08,-41 148.51,-23 260.08,-5 371.64,-23 260.08,-41"/>
<text text-anchor="middle" x="260.08" y="-18.8" font-family="Times,serif" font-size="14.00">Google Analytics</text>
</g>
<!-- n2&#45;&gt;n5 -->
<g id="edge1" class="edge">
<title>n2&#45;&gt;n5</title>
<path fill="none" stroke="black" d="M84.58,-42.85C90.77,-41.49 97.2,-40.21 103.28,-39.2 125.43,-35.53 149.49,-32.55 171.94,-30.18"/>
<polygon fill="black" stroke="black" points="172.06,-33.69 181.65,-29.19 171.35,-26.72 172.06,-33.69"/>
<text text-anchor="middle" x="116.9" y="-43.4" font-family="Times,serif" font-size="14.00">https</text>
</g>
</g>
</svg>
